<svg width="32" height="32" viewBox="0 0 32 32" fill="none" xmlns="http://www.w3.org/2000/svg">
<rect width="32" height="32" fill="#094B3C"/>
<path d="M16 6.25C13.4791 6.25005 11.0562 7.22647 9.23968 8.97439C7.42317 10.7223 6.35426 13.1059 6.25723 15.6249C6.1602 18.1439 7.0426 20.6026 8.71928 22.4851C10.396 24.3676 12.7366 25.5275 15.25 25.7214V18.2501H13C12.8011 18.2501 12.6103 18.1711 12.4697 18.0304C12.329 17.8898 12.25 17.699 12.25 17.5001C12.25 17.3012 12.329 17.1104 12.4697 16.9698C12.6103 16.8291 12.8011 16.7501 13 16.7501H15.25V14.5001C15.2509 13.7047 15.5673 12.9422 16.1297 12.3798C16.6921 11.8174 17.4546 11.501 18.25 11.5001H19.75C19.9489 11.5001 20.1397 11.5791 20.2803 11.7198C20.421 11.8604 20.5 12.0512 20.5 12.2501C20.5 12.449 20.421 12.6398 20.2803 12.7804C20.1397 12.9211 19.9489 13.0001 19.75 13.0001H18.25C17.8523 13.0005 17.471 13.1587 17.1898 13.4399C16.9086 13.7211 16.7505 14.1024 16.75 14.5001V16.7501H19C19.1989 16.7501 19.3897 16.8291 19.5303 16.9698C19.671 17.1104 19.75 17.3012 19.75 17.5001C19.75 17.699 19.671 17.8898 19.5303 18.0304C19.3897 18.1711 19.1989 18.2501 19 18.2501H16.75V25.7214C19.2634 25.5275 21.604 24.3676 23.2807 22.4851C24.9574 20.6026 25.8398 18.1439 25.7427 15.6249C25.6457 13.1059 24.5768 10.7223 22.7603 8.9744C20.9438 7.22648 18.5209 6.25006 16 6.25Z" fill="white"/>
</svg>
