<svg width="33" height="33" viewBox="0 0 33 33" fill="none" xmlns="http://www.w3.org/2000/svg">
<path d="M26.4452 26.2367C25.2327 26.2367 24.1996 25.8056 23.3459 24.9435C22.502 24.0814 22.08 23.0479 22.08 21.8429V11.7914C22.08 10.5668 22.5068 9.52837 23.3605 8.67606C24.2141 7.81394 25.2424 7.38289 26.4452 7.38289C27.6578 7.38289 28.686 7.81394 29.53 8.67606C30.3739 9.53817 30.7959 10.5766 30.7959 11.7914V13.8928H27.9439V11.7326C27.9439 11.2918 27.7887 10.9146 27.4783 10.6011C27.1679 10.2876 26.7944 10.1309 26.3579 10.1309C25.9214 10.1309 25.5479 10.2876 25.2375 10.6011C24.9368 10.9146 24.7864 11.2918 24.7864 11.7326V21.8135C24.7864 22.2543 24.9368 22.6315 25.2375 22.945C25.5479 23.2487 25.9214 23.4005 26.3579 23.4005C26.7944 23.4005 27.1679 23.2487 27.4783 22.945C27.7887 22.6315 27.9439 22.2543 27.9439 21.8135V18.1838H26.4161V15.4064H30.7959V21.8429C30.7959 23.0674 30.3691 24.1059 29.5154 24.9582C28.6618 25.8105 27.6384 26.2367 26.4452 26.2367Z" fill="white"/>
<path d="M16.0423 26.031H13.2922V7.60333H21.1205V10.3807H16.0423V15.4211H19.7528V18.2132H16.0423V26.031Z" fill="white"/>
<path d="M5.98382 10.3954H3.05912V7.61798H11.6441V10.3954H8.73392V26.0309H5.98382V10.3954Z" fill="white"/>
</svg>
