<svg width="32" height="32" viewBox="0 0 32 32" fill="none" xmlns="http://www.w3.org/2000/svg">
<rect width="32" height="32" fill="#094B3C"/>
<path d="M23.5 7H8.5C8.10231 7.00045 7.72105 7.15864 7.43984 7.43984C7.15864 7.72105 7.00045 8.10231 7 8.5V23.5C7.00045 23.8977 7.15864 24.279 7.43984 24.5602C7.72105 24.8414 8.10231 24.9995 8.5 25H23.5C23.8977 24.9995 24.279 24.8414 24.5602 24.5602C24.8414 24.279 24.9995 23.8977 25 23.5V8.5C24.9995 8.10231 24.8414 7.72105 24.5602 7.43984C24.279 7.15864 23.8977 7.00045 23.5 7ZM13 20.5001C13 20.699 12.921 20.8898 12.7803 21.0304C12.6397 21.1711 12.4489 21.2501 12.25 21.2501C12.0511 21.2501 11.8603 21.1711 11.7197 21.0304C11.579 20.8898 11.5 20.699 11.5 20.5001V14.5001C11.5 14.3012 11.579 14.1104 11.7197 13.9698C11.8603 13.8291 12.0511 13.7501 12.25 13.7501C12.4489 13.7501 12.6397 13.8291 12.7803 13.9698C12.921 14.1104 13 14.3012 13 14.5001V20.5001ZM12.25 12.6251C12.0275 12.6251 11.81 12.5591 11.625 12.4355C11.44 12.3119 11.2958 12.1362 11.2106 11.9306C11.1255 11.725 11.1032 11.4988 11.1466 11.2806C11.19 11.0624 11.2972 10.8619 11.4545 10.7046C11.6118 10.5473 11.8123 10.4401 12.0305 10.3967C12.2488 10.3533 12.475 10.3756 12.6805 10.4607C12.8861 10.5459 13.0618 10.6901 13.1854 10.8751C13.309 11.0601 13.375 11.2776 13.375 11.5001C13.375 11.7985 13.2565 12.0846 13.0455 12.2956C12.8345 12.5066 12.5484 12.6251 12.25 12.6251ZM21.25 20.5001C21.25 20.699 21.171 20.8898 21.0303 21.0304C20.8897 21.1711 20.6989 21.2501 20.5 21.2501C20.3011 21.2501 20.1103 21.1711 19.9697 21.0304C19.829 20.8898 19.75 20.699 19.75 20.5001V17.1251C19.75 16.6278 19.5525 16.1509 19.2008 15.7993C18.8492 15.4476 18.3723 15.2501 17.875 15.2501C17.3777 15.2501 16.9008 15.4476 16.5492 15.7993C16.1975 16.1509 16 16.6278 16 17.1251V20.5001C16 20.699 15.921 20.8898 15.7803 21.0304C15.6397 21.1711 15.4489 21.2501 15.25 21.2501C15.0511 21.2501 14.8603 21.1711 14.7197 21.0304C14.579 20.8898 14.5 20.699 14.5 20.5001V14.5001C14.4999 14.3157 14.5678 14.1378 14.6906 14.0003C14.8135 13.8628 14.9826 13.7754 15.1659 13.7548C15.3491 13.7342 15.5334 13.7818 15.6838 13.8885C15.8341 13.9952 15.9398 14.1536 15.9808 14.3333C16.488 13.9887 17.0796 13.7888 17.6919 13.7552C18.3042 13.7215 18.9141 13.8555 19.456 14.1426C19.9979 14.4297 20.4513 14.8591 20.7674 15.3846C21.0835 15.9101 21.2503 16.5118 21.25 17.1251V20.5001Z" fill="white"/>
</svg>
