<svg width="141" height="23" viewBox="0 0 141 23" fill="none" xmlns="http://www.w3.org/2000/svg">
<path d="M140.569 16.8864C140.569 18.2955 140.075 19.5 139.086 20.5C138.097 21.5 136.904 22 135.506 22H130.444V0.625H135.506C136.915 0.625 138.109 1.125 139.086 2.125C140.075 3.125 140.569 4.32386 140.569 5.72159V16.8864ZM133.665 18.8125H135.609C136.12 18.8125 136.552 18.6307 136.904 18.267C137.256 17.892 137.432 17.4545 137.432 16.9545V5.77273C137.432 5.26136 137.251 4.82386 136.887 4.46023C136.535 4.09659 136.109 3.91477 135.609 3.91477H133.665V18.8125Z" fill="#094B3C"/>
<path d="M122.509 0.369141C123.93 0.369141 125.134 0.869141 126.123 1.86914C127.123 2.86914 127.623 4.07369 127.623 5.48278V17.1419C127.623 18.5623 127.123 19.7726 126.123 20.7726C125.123 21.7612 123.918 22.2555 122.509 22.2555C121.089 22.2555 119.884 21.7555 118.896 20.7555C117.907 19.7555 117.413 18.551 117.413 17.1419V5.48278C117.413 4.06232 117.913 2.85778 118.913 1.86914C119.913 0.869141 121.111 0.369141 122.509 0.369141Z" fill="#094B3C"/>
<path d="M109.525 0.369141C110.945 0.369141 112.15 0.869141 113.138 1.86914C114.138 2.86914 114.638 4.07369 114.638 5.48278V17.1419C114.638 18.5623 114.138 19.7726 113.138 20.7726C112.138 21.7612 110.934 22.2555 109.525 22.2555C108.104 22.2555 106.9 21.7555 105.911 20.7555C104.923 19.7555 104.428 18.551 104.428 17.1419V5.48278C104.428 4.06232 104.928 2.85778 105.928 1.86914C106.928 0.869141 108.127 0.369141 109.525 0.369141Z" fill="#094B3C"/>
<path d="M96.5809 22.2726C95.1605 22.2726 93.9502 21.7726 92.9502 20.7726C91.9616 19.7726 91.4673 18.5738 91.4673 17.176V5.51696C91.4673 4.0965 91.9673 2.89196 92.9673 1.90332C93.9673 0.90332 95.1718 0.40332 96.5809 0.40332C98.0014 0.40332 99.2059 0.90332 100.195 1.90332C101.183 2.90332 101.678 4.10787 101.678 5.51696V7.95446H98.3366V5.44878C98.3366 4.93741 98.1548 4.49991 97.7911 4.13628C97.4275 3.77264 96.99 3.59082 96.4786 3.59082C95.9673 3.59082 95.5298 3.77264 95.1661 4.13628C94.8139 4.49991 94.6377 4.93741 94.6377 5.44878V17.142C94.6377 17.6533 94.8139 18.0908 95.1661 18.4545C95.5298 18.8067 95.9673 18.9829 96.4786 18.9829C96.99 18.9829 97.4275 18.8067 97.7911 18.4545C98.1548 18.0908 98.3366 17.6533 98.3366 17.142V12.9317H96.5468V9.71014H101.678V17.176C101.678 18.5965 101.178 19.801 100.178 20.7897C99.1775 21.7783 97.9786 22.2726 96.5809 22.2726Z" fill="#094B3C"/>
<path d="M81.289 0.641602C83.0845 0.641602 84.4027 1.13592 85.2436 2.12456C85.9822 2.98819 86.3515 4.19274 86.3515 5.73819V8.84047C86.3515 10.3518 85.7777 11.6302 84.6299 12.6757L87.0163 21.9996H83.539L81.5788 13.9371C81.4879 13.9484 81.3913 13.9541 81.289 13.9541H79.4311V21.9996H76.2095V0.641602H81.289ZM83.2152 5.78933C83.2152 4.55069 82.6015 3.93138 81.3742 3.93138H79.4311V10.7666H81.3742C81.8856 10.7666 82.3174 10.5848 82.6697 10.2211C83.0333 9.85751 83.2152 9.42001 83.2152 8.90865V5.78933Z" fill="#094B3C"/>
<path d="M68.2514 0.369141C69.6718 0.369141 70.8764 0.869141 71.865 1.86914C72.865 2.86914 73.365 4.07369 73.365 5.48278V17.1419C73.365 18.5623 72.865 19.7726 71.865 20.7726C70.865 21.7612 69.6605 22.2555 68.2514 22.2555C66.8309 22.2555 65.6264 21.7555 64.6377 20.7555C63.6491 19.7555 63.1548 18.551 63.1548 17.1419V5.48278C63.1548 4.06232 63.6548 2.85778 64.6548 1.86914C65.6548 0.869141 66.8536 0.369141 68.2514 0.369141ZM70.0071 5.4146C70.0071 4.90323 69.8252 4.47141 69.4616 4.11914C69.1093 3.75551 68.6775 3.57369 68.1661 3.57369C67.6548 3.57369 67.2173 3.75551 66.8536 4.11914C66.49 4.47141 66.3082 4.90323 66.3082 5.4146V17.1078C66.3082 17.6191 66.49 18.0566 66.8536 18.4203C67.2173 18.7725 67.6548 18.9487 68.1661 18.9487C68.6775 18.9487 69.1093 18.7725 69.4616 18.4203C69.8252 18.0566 70.0071 17.6191 70.0071 17.1078V5.4146Z" fill="#094B3C"/>
<path d="M54.9857 22H51.7642V0.625H60.9346V3.84659H54.9857V9.69318H59.3323V12.9318H54.9857V22Z" fill="#094B3C"/>
<path d="M40.2372 12.9484V21.9996H36.9985V0.641602H40.2372V9.70979H44.0894V0.641602H47.3281V21.9996H44.0894V12.9484H40.2372Z" fill="#094B3C"/>
<path d="M29.2684 22.2726C27.848 22.2726 26.6377 21.7783 25.6377 20.7897C24.6491 19.7897 24.1548 18.5851 24.1548 17.176V5.51696C24.1548 4.0965 24.6548 2.89196 25.6548 1.90332C26.6548 0.90332 27.8593 0.40332 29.2684 0.40332C30.6889 0.40332 31.8934 0.90332 32.8821 1.90332C33.8707 2.90332 34.365 4.10787 34.365 5.51696V7.95446H31.0241V5.44878C31.0241 4.93741 30.8423 4.49991 30.4786 4.13628C30.115 3.77264 29.6775 3.59082 29.1661 3.59082C28.6548 3.59082 28.2173 3.77264 27.8536 4.13628C27.5014 4.49991 27.3252 4.93741 27.3252 5.44878V17.142C27.3252 17.6533 27.5014 18.0908 27.8536 18.4545C28.2173 18.8067 28.6548 18.9829 29.1661 18.9829C29.6775 18.9829 30.115 18.8067 30.4786 18.4545C30.8423 18.0908 31.0241 17.6533 31.0241 17.142V14.1931H34.365V17.176C34.365 18.5965 33.865 19.801 32.865 20.7897C31.865 21.7783 30.6662 22.2726 29.2684 22.2726Z" fill="#094B3C"/>
<path d="M12.7642 22V0.625H21.9346V3.84659H15.9858V9.69318H20.3323V12.9318H15.9858V18.7784H21.9346V22H12.7642Z" fill="#094B3C"/>
<path d="M3.53405 3.86319H0.10791V0.641602H10.1647V3.86319H6.75564V21.9996H3.53405V3.86319Z" fill="#094B3C"/>
</svg>
